<mxfile host="app.diagrams.net" modified="2023-03-15T06:06:45.481Z" agent="5.0 (Windows NT 10.0; Win64; x64) AppleWebKit/537.36 (KHTML, like Gecko) Chrome/110.0.0.0 Safari/537.36" etag="TZSlfiWsLQchFkDcOevQ" version="21.0.6" type="github">
  <diagram name="第 1 页" id="D0wo1kWI4EuqjavsuM2g">
    <mxGraphModel dx="1050" dy="558" grid="1" gridSize="10" guides="1" tooltips="1" connect="1" arrows="1" fold="1" page="1" pageScale="1" pageWidth="827" pageHeight="1169" math="0" shadow="0">
      <root>
        <mxCell id="0" />
        <mxCell id="1" parent="0" />
        <mxCell id="900CVYcRrn_lo1I9dFfZ-1" value="User" style="rounded=1;arcSize=10;whiteSpace=wrap;html=1;align=center;" vertex="1" parent="1">
          <mxGeometry x="170" y="430" width="100" height="40" as="geometry" />
        </mxCell>
        <mxCell id="900CVYcRrn_lo1I9dFfZ-2" value="username" style="ellipse;whiteSpace=wrap;html=1;align=center;" vertex="1" parent="1">
          <mxGeometry x="60" y="370" width="100" height="40" as="geometry" />
        </mxCell>
        <mxCell id="900CVYcRrn_lo1I9dFfZ-3" value="name" style="ellipse;whiteSpace=wrap;html=1;align=center;" vertex="1" parent="1">
          <mxGeometry x="170" y="360" width="100" height="40" as="geometry" />
        </mxCell>
        <mxCell id="900CVYcRrn_lo1I9dFfZ-4" value="password" style="ellipse;whiteSpace=wrap;html=1;align=center;" vertex="1" parent="1">
          <mxGeometry x="280" y="370" width="100" height="40" as="geometry" />
        </mxCell>
        <mxCell id="900CVYcRrn_lo1I9dFfZ-6" value="" style="endArrow=none;html=1;rounded=0;exitX=0.5;exitY=1;exitDx=0;exitDy=0;entryX=0.25;entryY=0;entryDx=0;entryDy=0;" edge="1" parent="1" source="900CVYcRrn_lo1I9dFfZ-2" target="900CVYcRrn_lo1I9dFfZ-1">
          <mxGeometry relative="1" as="geometry">
            <mxPoint x="330" y="390" as="sourcePoint" />
            <mxPoint x="490" y="390" as="targetPoint" />
          </mxGeometry>
        </mxCell>
        <mxCell id="900CVYcRrn_lo1I9dFfZ-7" value="" style="endArrow=none;html=1;rounded=0;exitX=0.5;exitY=1;exitDx=0;exitDy=0;entryX=0.5;entryY=0;entryDx=0;entryDy=0;" edge="1" parent="1" source="900CVYcRrn_lo1I9dFfZ-3" target="900CVYcRrn_lo1I9dFfZ-1">
          <mxGeometry relative="1" as="geometry">
            <mxPoint x="70" y="400" as="sourcePoint" />
            <mxPoint x="165" y="440" as="targetPoint" />
          </mxGeometry>
        </mxCell>
        <mxCell id="900CVYcRrn_lo1I9dFfZ-8" value="" style="endArrow=none;html=1;rounded=0;exitX=0.5;exitY=1;exitDx=0;exitDy=0;entryX=0.75;entryY=0;entryDx=0;entryDy=0;" edge="1" parent="1" source="900CVYcRrn_lo1I9dFfZ-4" target="900CVYcRrn_lo1I9dFfZ-1">
          <mxGeometry relative="1" as="geometry">
            <mxPoint x="190" y="360" as="sourcePoint" />
            <mxPoint x="190" y="440" as="targetPoint" />
          </mxGeometry>
        </mxCell>
        <mxCell id="900CVYcRrn_lo1I9dFfZ-9" value="Role" style="rounded=1;arcSize=10;whiteSpace=wrap;html=1;align=center;" vertex="1" parent="1">
          <mxGeometry x="320" y="565" width="100" height="40" as="geometry" />
        </mxCell>
        <mxCell id="900CVYcRrn_lo1I9dFfZ-10" value="code" style="ellipse;whiteSpace=wrap;html=1;align=center;" vertex="1" parent="1">
          <mxGeometry x="260" y="640" width="100" height="40" as="geometry" />
        </mxCell>
        <mxCell id="900CVYcRrn_lo1I9dFfZ-11" value="name" style="ellipse;whiteSpace=wrap;html=1;align=center;" vertex="1" parent="1">
          <mxGeometry x="400" y="640" width="100" height="40" as="geometry" />
        </mxCell>
        <mxCell id="900CVYcRrn_lo1I9dFfZ-12" value="" style="endArrow=none;html=1;rounded=0;exitX=0.25;exitY=1;exitDx=0;exitDy=0;" edge="1" parent="1" source="900CVYcRrn_lo1I9dFfZ-9" target="900CVYcRrn_lo1I9dFfZ-10">
          <mxGeometry relative="1" as="geometry">
            <mxPoint x="310" y="400" as="sourcePoint" />
            <mxPoint x="215" y="440" as="targetPoint" />
          </mxGeometry>
        </mxCell>
        <mxCell id="900CVYcRrn_lo1I9dFfZ-13" value="" style="endArrow=none;html=1;rounded=0;exitX=0.75;exitY=1;exitDx=0;exitDy=0;entryX=0.316;entryY=0;entryDx=0;entryDy=0;entryPerimeter=0;" edge="1" parent="1" source="900CVYcRrn_lo1I9dFfZ-9" target="900CVYcRrn_lo1I9dFfZ-11">
          <mxGeometry relative="1" as="geometry">
            <mxPoint x="355" y="615" as="sourcePoint" />
            <mxPoint x="332" y="651" as="targetPoint" />
          </mxGeometry>
        </mxCell>
        <mxCell id="900CVYcRrn_lo1I9dFfZ-17" value="User-Role" style="shape=rhombus;perimeter=rhombusPerimeter;whiteSpace=wrap;html=1;align=center;" vertex="1" parent="1">
          <mxGeometry x="140" y="530" width="120" height="60" as="geometry" />
        </mxCell>
        <mxCell id="900CVYcRrn_lo1I9dFfZ-21" value="" style="endArrow=none;html=1;rounded=0;exitX=0.5;exitY=1;exitDx=0;exitDy=0;entryX=0.5;entryY=0;entryDx=0;entryDy=0;" edge="1" parent="1" source="900CVYcRrn_lo1I9dFfZ-1" target="900CVYcRrn_lo1I9dFfZ-17">
          <mxGeometry relative="1" as="geometry">
            <mxPoint x="330" y="490" as="sourcePoint" />
            <mxPoint x="490" y="490" as="targetPoint" />
          </mxGeometry>
        </mxCell>
        <mxCell id="900CVYcRrn_lo1I9dFfZ-22" value="N" style="resizable=0;html=1;whiteSpace=wrap;align=right;verticalAlign=bottom;" connectable="0" vertex="1" parent="900CVYcRrn_lo1I9dFfZ-21">
          <mxGeometry x="1" relative="1" as="geometry">
            <mxPoint x="10" y="-20" as="offset" />
          </mxGeometry>
        </mxCell>
        <mxCell id="900CVYcRrn_lo1I9dFfZ-23" value="" style="endArrow=none;html=1;rounded=0;exitX=0;exitY=0.5;exitDx=0;exitDy=0;entryX=1;entryY=0.5;entryDx=0;entryDy=0;" edge="1" parent="1" source="900CVYcRrn_lo1I9dFfZ-9" target="900CVYcRrn_lo1I9dFfZ-17">
          <mxGeometry relative="1" as="geometry">
            <mxPoint x="190" y="480" as="sourcePoint" />
            <mxPoint x="170" y="550" as="targetPoint" />
          </mxGeometry>
        </mxCell>
        <mxCell id="900CVYcRrn_lo1I9dFfZ-24" value="M" style="resizable=0;html=1;whiteSpace=wrap;align=right;verticalAlign=bottom;" connectable="0" vertex="1" parent="900CVYcRrn_lo1I9dFfZ-23">
          <mxGeometry x="1" relative="1" as="geometry">
            <mxPoint x="50" y="10" as="offset" />
          </mxGeometry>
        </mxCell>
        <mxCell id="900CVYcRrn_lo1I9dFfZ-25" value="Resource" style="rounded=1;arcSize=10;whiteSpace=wrap;html=1;align=center;" vertex="1" parent="1">
          <mxGeometry x="460" y="420" width="100" height="40" as="geometry" />
        </mxCell>
        <mxCell id="900CVYcRrn_lo1I9dFfZ-26" value="url" style="ellipse;whiteSpace=wrap;html=1;align=center;" vertex="1" parent="1">
          <mxGeometry x="550" y="360" width="100" height="40" as="geometry" />
        </mxCell>
        <mxCell id="900CVYcRrn_lo1I9dFfZ-27" value="name" style="ellipse;whiteSpace=wrap;html=1;align=center;" vertex="1" parent="1">
          <mxGeometry x="600" y="420" width="100" height="40" as="geometry" />
        </mxCell>
        <mxCell id="900CVYcRrn_lo1I9dFfZ-28" value="method" style="ellipse;whiteSpace=wrap;html=1;align=center;" vertex="1" parent="1">
          <mxGeometry x="580" y="470" width="100" height="40" as="geometry" />
        </mxCell>
        <mxCell id="900CVYcRrn_lo1I9dFfZ-29" value="" style="endArrow=none;html=1;rounded=0;exitX=0.5;exitY=1;exitDx=0;exitDy=0;entryX=1;entryY=0;entryDx=0;entryDy=0;" edge="1" parent="1" source="900CVYcRrn_lo1I9dFfZ-26" target="900CVYcRrn_lo1I9dFfZ-25">
          <mxGeometry relative="1" as="geometry">
            <mxPoint x="310" y="400" as="sourcePoint" />
            <mxPoint x="215" y="440" as="targetPoint" />
          </mxGeometry>
        </mxCell>
        <mxCell id="900CVYcRrn_lo1I9dFfZ-30" value="" style="endArrow=none;html=1;rounded=0;exitX=0;exitY=0.5;exitDx=0;exitDy=0;entryX=1;entryY=0.5;entryDx=0;entryDy=0;" edge="1" parent="1" source="900CVYcRrn_lo1I9dFfZ-27" target="900CVYcRrn_lo1I9dFfZ-25">
          <mxGeometry relative="1" as="geometry">
            <mxPoint x="690" y="390" as="sourcePoint" />
            <mxPoint x="640" y="430" as="targetPoint" />
          </mxGeometry>
        </mxCell>
        <mxCell id="900CVYcRrn_lo1I9dFfZ-31" value="" style="endArrow=none;html=1;rounded=0;exitX=0;exitY=0;exitDx=0;exitDy=0;entryX=1;entryY=0.75;entryDx=0;entryDy=0;" edge="1" parent="1" source="900CVYcRrn_lo1I9dFfZ-28" target="900CVYcRrn_lo1I9dFfZ-25">
          <mxGeometry relative="1" as="geometry">
            <mxPoint x="690" y="450" as="sourcePoint" />
            <mxPoint x="640" y="450" as="targetPoint" />
          </mxGeometry>
        </mxCell>
        <mxCell id="900CVYcRrn_lo1I9dFfZ-32" value="Role-Resource" style="shape=rhombus;perimeter=rhombusPerimeter;whiteSpace=wrap;html=1;align=center;" vertex="1" parent="1">
          <mxGeometry x="480" y="530" width="120" height="60" as="geometry" />
        </mxCell>
        <mxCell id="900CVYcRrn_lo1I9dFfZ-34" value="" style="endArrow=none;html=1;rounded=0;exitX=1;exitY=0.25;exitDx=0;exitDy=0;entryX=0;entryY=0.5;entryDx=0;entryDy=0;" edge="1" parent="1" source="900CVYcRrn_lo1I9dFfZ-9" target="900CVYcRrn_lo1I9dFfZ-32">
          <mxGeometry relative="1" as="geometry">
            <mxPoint x="330" y="490" as="sourcePoint" />
            <mxPoint x="490" y="490" as="targetPoint" />
          </mxGeometry>
        </mxCell>
        <mxCell id="900CVYcRrn_lo1I9dFfZ-35" value="N" style="resizable=0;html=1;whiteSpace=wrap;align=right;verticalAlign=bottom;" connectable="0" vertex="1" parent="900CVYcRrn_lo1I9dFfZ-34">
          <mxGeometry x="1" relative="1" as="geometry">
            <mxPoint x="-30" y="5" as="offset" />
          </mxGeometry>
        </mxCell>
        <mxCell id="900CVYcRrn_lo1I9dFfZ-36" value="" style="endArrow=none;html=1;rounded=0;exitX=0.5;exitY=0;exitDx=0;exitDy=0;entryX=0.5;entryY=1;entryDx=0;entryDy=0;" edge="1" parent="1" source="900CVYcRrn_lo1I9dFfZ-32" target="900CVYcRrn_lo1I9dFfZ-25">
          <mxGeometry relative="1" as="geometry">
            <mxPoint x="430" y="585" as="sourcePoint" />
            <mxPoint x="530" y="570" as="targetPoint" />
          </mxGeometry>
        </mxCell>
        <mxCell id="900CVYcRrn_lo1I9dFfZ-37" value="M" style="resizable=0;html=1;whiteSpace=wrap;align=right;verticalAlign=bottom;" connectable="0" vertex="1" parent="900CVYcRrn_lo1I9dFfZ-36">
          <mxGeometry x="1" relative="1" as="geometry">
            <mxPoint y="40" as="offset" />
          </mxGeometry>
        </mxCell>
      </root>
    </mxGraphModel>
  </diagram>
</mxfile>
